<svg width="70" height="266" viewBox="0 0 70 266" fill="none" xmlns="http://www.w3.org/2000/svg">
<path d="M49.638 206.904L49.527 228.215L49.527 228.441C46.9847 249.944 20.3781 250.038 20.9208 213.863L20.9208 200.518L3.30842 196.93C1.1763 196.482 1.2874 198.724 1.2874 199.062C-0.0585248 235.173 8.24346 251.051 20.3568 259.35C43.4682 275.164 73.3092 260.969 67.699 211.06C67.5879 210.052 67.8101 209.377 66.8018 209.155L51.9923 206.464C50.42 206.127 49.638 205.905 49.638 206.913L49.638 206.904Z" fill="black"/>
<path d="M48.7395 149.367L48.7395 177.965L3.30293 168.768C1.84592 168.542 0.499998 169.554 0.499999 171.011L0.499999 189.515C0.499999 190.639 1.28619 191.536 2.29456 191.758L65.5657 204.205C67.0227 204.543 68.3686 203.419 68.3686 201.963L68.5951 152.165C68.5951 151.041 67.8089 150.144 66.8005 149.922L51.6536 147.12C50.0812 146.894 48.7353 147.906 48.7353 149.363L48.7395 149.367Z" fill="black"/>
<path d="M1.1748 69.8444L1.1748 90.7068C1.1748 91.8303 1.8499 92.7273 2.96936 92.9494L47.2822 102.932C50.9824 103.829 55.5842 108.092 53.5632 115.046C51.9908 119.98 45.039 118.412 44.3639 118.186L44.2528 118.186L3.97774 109.997C2.52072 109.66 1.1748 110.783 1.1748 112.129L1.1748 132.654C1.1748 133.662 1.8499 134.559 2.96937 134.785C16.3175 137.587 40.104 143.755 45.2612 144.093C58.7247 144.99 64.7792 137.814 67.5864 132.427C70.2783 127.156 69.6074 103.154 68.7102 99.2286C66.6891 91.4885 62.0916 82.9667 47.7309 77.4692C40.7748 74.7782 12.9548 69.2806 3.97774 67.6019C2.52072 67.3755 1.1748 68.3878 1.1748 69.8444Z" fill="black"/>
<path d="M32.455 10.7966C32.4485 10.8075 32.4321 10.8055 32.4283 10.7934C30.3292 4.22248 25.3339 0.49973 18.4838 0.49973C10.1112 0.49973 1.27343 6.32127 1.27344 22.5777L1.27344 60.5824C1.27344 61.3513 1.85487 62.0104 2.55259 62.23L66.6265 75.0814C67.2079 75.1912 67.673 75.0814 68.1382 74.7518C68.487 74.4223 68.7196 73.983 68.7196 73.5436L68.7196 33.4519C68.7196 15.2183 60.2307 3.90478 46.5089 3.90478C40.0104 3.90478 35.1332 6.31122 32.455 10.7966ZM51.3929 36.8569L51.3929 48.482C51.3929 48.4913 51.3844 48.4982 51.3753 48.4963L41.4039 46.4154C41.3971 46.414 41.3923 46.4081 41.3923 46.4011L41.3923 33.7814C41.3923 27.3008 44.7646 27.3008 45.9275 27.3008C47.3229 27.3008 51.3929 27.3008 51.3929 36.8569ZM27.3216 32.1338L27.3216 43.5394C27.3216 43.5486 27.3132 43.5555 27.3041 43.5537L18.4956 41.8021C18.4888 41.8007 18.4838 41.7947 18.4838 41.7877L18.4838 30.0468C18.4838 25.4335 20.577 24.7745 22.4376 24.7745C23.6004 24.7745 27.3216 24.7745 27.3216 32.1338Z" fill="black"/>
</svg>
