<svg width="70" height="371" viewBox="0 0 70 371" fill="none" xmlns="http://www.w3.org/2000/svg">
<path d="M69.4979 346.764L69.4979 368.997C69.4979 369.53 69.258 370.028 68.8415 370.366C68.4238 370.701 67.8831 370.829 67.358 370.717L1.90349 356.908C1.09076 356.737 0.500001 356.013 0.500001 355.187L0.5 332.951C0.5 332.42 0.739883 331.92 1.15759 331.585C1.5741 331.248 2.11593 331.121 2.63985 331.231L68.092 345.042C68.9059 345.214 69.4967 345.938 69.4967 346.764M67.3724 368.565L67.3724 347.048L2.62433 333.386L2.62433 354.903L67.3736 368.565H67.3724Z" fill="black"/>
<path d="M69.4977 262.368L69.4977 287.501C69.4977 288.111 69.1707 288.687 68.6456 289.004L43.7157 303.988L68.0918 309.096C68.9057 309.268 69.4965 309.99 69.4965 310.817L69.4965 333.051C69.4965 333.584 69.2578 334.083 68.8401 334.418C68.4224 334.754 67.8806 334.882 67.3567 334.771L1.99761 320.961C1.18488 320.789 0.592927 320.065 0.592927 319.239L0.592925 275.016C0.592925 261.346 9.62731 251.424 22.0726 251.424C29.1855 251.424 35.1658 253.701 39.3727 258.011C43.3791 262.114 45.8006 268.09 46.3926 275.322L66.6943 260.937C67.2385 260.553 67.9426 260.502 68.5358 260.803C69.1289 261.106 69.4965 261.707 69.4965 262.368M67.371 263.052L47.111 277.403C46.5883 277.774 45.9045 277.835 45.3245 277.562C44.7456 277.29 44.359 276.726 44.316 276.089C43.3624 261.755 35.2542 253.535 22.0714 253.535C10.8577 253.535 2.71845 262.571 2.71845 275.018L2.71845 318.956L67.371 332.62L67.371 311.103L42.4017 305.87C41.6868 305.72 41.1438 305.159 41.0209 304.443C40.898 303.724 41.2238 303.022 41.848 302.645L67.371 287.305L67.371 263.052ZM35.0584 289.601L35.0584 302.177C35.0584 302.71 34.8186 303.209 34.4009 303.545C33.9843 303.882 33.4413 304.009 32.9174 303.898L18.7834 300.887C17.9731 300.713 17.3835 299.991 17.3835 299.167L17.3835 285.719C17.3835 279.663 20.3122 276.048 25.2197 276.048C35.0584 276.048 35.0584 286.25 35.0584 289.601ZM32.9341 301.743L32.9341 289.601C32.9341 279.456 28.8108 278.156 25.2197 278.156C21.6286 278.156 19.509 280.841 19.509 285.719L19.509 298.882L32.9341 301.743Z" fill="black"/>
<path d="M69.4973 178.428L69.4973 207.566C69.4973 208.315 69.0187 208.983 68.305 209.229L30.3296 222.223L68.0962 230.215C68.9077 230.386 69.4985 231.11 69.4985 231.934L69.4985 251.519C69.4985 252.052 69.2598 252.551 68.8433 252.886C68.4256 253.223 67.8849 253.351 67.3598 253.242L1.99718 239.428C1.18564 239.256 0.594884 238.532 0.594884 237.707L0.594882 207.627C0.594882 206.868 1.08061 206.199 1.80623 205.961L39.1038 193.617L2.00076 185.827C1.18683 185.658 0.596075 184.933 0.596075 184.107L0.596074 164.617C0.596074 164.087 0.834763 163.588 1.25128 163.251C1.66779 162.915 2.21081 162.787 2.73473 162.897H2.73711L68.095 176.707C68.9065 176.88 69.4973 177.604 69.4973 178.428ZM67.3741 178.712L2.7216 165.053L2.7216 183.823L40.82 191.821C41.6136 191.987 42.1769 192.639 42.2223 193.442C42.2795 194.238 41.7831 194.954 41.0133 195.21L2.7216 207.881L2.7216 237.423L67.3741 251.084L67.3741 232.217L28.642 224.022C27.8532 223.856 27.2899 223.206 27.2409 222.408C27.192 221.596 27.6718 220.897 28.4332 220.639L67.3741 207.316L67.3741 178.712Z" fill="black"/>
<path d="M69.4996 121.531L69.4997 164.508C69.4997 165.04 69.2586 165.538 68.8421 165.875C68.4244 166.211 67.8837 166.34 67.3586 166.228L1.99718 152.416C1.18564 152.246 0.594884 151.521 0.594884 150.697L0.594882 109.882C0.594881 92.4178 9.71758 86.1945 18.2579 86.1945C25.2204 86.1945 30.3463 90.2118 32.4348 97.2586C35.2239 92.4308 40.1624 89.8872 46.7812 89.8872C60.7947 89.8872 69.4996 102.013 69.4996 121.53M67.3741 164.072L67.3741 121.53C67.3741 113.025 65.6269 105.783 62.3259 100.584C58.7073 94.8868 53.4765 91.996 46.7812 91.996C40.6672 91.996 36.2157 94.4164 33.9063 98.9954C33.5746 99.6576 32.8776 100.032 32.1329 99.9514C31.3906 99.8709 30.7938 99.3579 30.6136 98.64C28.9285 91.9747 24.539 88.3021 18.2579 88.3021C8.67451 88.3021 2.71921 96.5714 2.71921 109.879L2.71922 150.41L67.3729 164.071L67.3741 164.072ZM53.9491 125.222L53.9491 138.082C53.9491 138.615 53.7092 139.114 53.2915 139.45C52.8714 139.787 52.3284 139.912 51.8032 139.801L40.9142 137.454C40.1051 137.278 39.5191 136.557 39.5191 135.735L39.5191 121.908C39.5191 114.385 43.1567 112.804 46.2096 112.804C51.345 112.804 53.9503 116.982 53.9503 125.222M51.8259 137.645L51.8259 125.222C51.8259 114.914 47.5987 114.914 46.2108 114.914C45.0818 114.914 41.647 114.914 41.647 121.907L41.647 135.452L51.8271 137.645H51.8259ZM29.3378 120.108L29.3378 132.872C29.3378 133.406 29.0979 133.906 28.6802 134.241C28.2613 134.577 27.7207 134.706 27.1944 134.594L17.5454 132.53C16.7362 132.355 16.1467 131.631 16.1467 130.809L16.1467 117.93C16.1467 112.767 18.2078 110.151 22.2655 110.151C25.4914 110.151 29.3378 111.876 29.3378 120.106M27.2135 132.436L27.2135 120.106C27.2135 112.26 23.4899 112.26 22.2655 112.26C20.2903 112.26 18.2722 112.932 18.2722 117.928L18.2722 130.524L27.2135 132.436Z" fill="black"/>
<path d="M69.4949 44.4476L69.4949 68.5792C69.4949 69.1111 69.2586 69.6087 68.8433 69.9452C68.4256 70.2793 67.8849 70.4096 67.361 70.3006L46.3182 65.9065L3.07128 84.477C2.51872 84.7128 1.89455 84.6606 1.39449 84.3336C0.894439 84.0067 0.594884 83.4569 0.594884 82.8622L0.594883 59.0292C0.594883 58.3077 1.0281 57.6715 1.69763 57.3978L24.206 48.3063L1.2477 29.7535C0.832378 29.4206 0.594882 28.9218 0.594882 28.3911L0.594881 2.51798C0.594881 1.82137 0.991105 1.21005 1.6296 0.918609C2.2669 0.629537 2.99609 0.73261 3.52479 1.18754L46.6941 38.261L68.0902 42.7274C68.9041 42.898 69.4949 43.6231 69.4949 44.4488M67.3717 44.7332L46.1666 40.307C45.8742 40.2442 45.5985 40.1092 45.373 39.9161L2.71921 3.28449L2.71922 28.2229L26.0105 47.0445C26.501 47.4402 26.7373 48.048 26.6466 48.6688C26.5511 49.2908 26.1466 49.8014 25.5606 50.0383L2.71922 59.2638L2.71922 82.3303L45.5782 63.9268C45.9172 63.7823 46.286 63.7444 46.6488 63.8214L67.3717 68.1468L67.3717 44.7332ZM2.13443 2.78217C2.13443 2.78217 2.13443 2.78218 2.13443 2.78454V2.78217Z" fill="black"/>
</svg>
