<svg width="70" height="498" viewBox="0 0 70 498" fill="none" xmlns="http://www.w3.org/2000/svg">
<path d="M1.06154 150.254C0.722899 150.592 0.499998 151.041 0.499998 151.49L0.499999 173.168C0.499999 173.955 1.06154 174.627 1.85026 174.854L65.2139 188.334C65.7755 188.446 66.2255 188.334 66.6756 187.996C67.0143 187.658 67.2372 187.209 67.2372 186.649L67.2372 165.082C67.2372 164.184 66.6756 163.508 65.8869 163.285L2.6347 149.916C1.95742 149.805 1.50734 149.916 1.05725 150.254L1.06154 150.254Z" fill="black"/>
<path d="M1.06582 260.451C0.727183 260.789 0.504283 261.238 0.504283 261.91L0.504284 280.781C0.504284 281.568 1.06582 282.24 1.74309 282.467L37.7586 290.104L1.62736 302.01C0.950085 302.237 0.499998 302.908 0.499998 303.695L0.499999 333.014C0.499999 333.801 1.06154 334.473 1.73881 334.7L65.1025 348.065C65.664 348.176 66.1141 348.065 66.5642 347.727C66.9028 347.389 67.1257 346.94 67.1257 346.379L67.1257 327.397C67.1257 326.498 66.5642 325.823 65.7755 325.6L29.1984 317.848L66.0027 305.266C66.6799 304.928 67.13 304.256 67.13 303.58L67.13 275.275C67.13 274.488 66.5685 273.816 65.7798 273.59L2.52753 260.113C1.96599 260.002 1.51591 260.113 1.06582 260.451Z" fill="black"/>
<path d="M1.06582 180.022C0.727183 180.36 0.504283 180.809 0.504283 181.37L0.504284 200.352C0.504284 201.139 1.06582 201.811 1.74309 202.038L37.7586 209.563L1.62736 221.581C0.950085 221.808 0.499998 222.479 0.499998 223.266L0.499999 252.47C0.499999 253.257 1.06154 254.044 1.73881 254.267L65.1025 267.632C65.664 267.743 66.1141 267.632 66.5642 267.294C66.9028 266.956 67.1257 266.507 67.1257 265.946L67.1257 246.852C67.1257 246.065 66.5642 245.393 65.7755 245.167L29.1984 237.303L66.0027 224.721C66.6799 224.494 67.13 223.823 67.13 223.147L67.13 194.842C67.13 193.943 66.5685 193.267 65.7798 193.045L2.52753 179.684C1.96599 179.573 1.51591 179.684 1.06582 180.022Z" fill="black"/>
<path d="M21.3256 416.244C9.16896 416.244 0.505856 426.016 0.505857 439.27L0.505859 482.296C0.505859 483.083 1.0674 483.755 1.74467 483.982L65.104 497.458C65.6656 497.569 66.1157 497.458 66.5658 497.12C66.9044 496.782 67.1273 496.333 67.1273 495.772L67.1273 474.206C67.1273 473.307 66.5658 472.52 65.777 472.409L42.141 467.468L66.3386 452.866C66.7887 452.639 67.1273 452.079 67.1273 451.407L67.1273 426.919C67.1273 426.358 66.7887 425.793 66.2271 425.46C65.6656 425.126 64.9883 425.233 64.5382 425.571L44.7301 439.501C44.1686 432.536 41.8024 426.696 37.9788 422.653C33.928 418.499 28.0769 416.249 21.3213 416.249L21.3256 416.244ZM31.7933 453.427L31.7933 465.333L18.7365 462.411L18.7365 449.606C18.7365 444.887 20.6483 442.303 24.2533 442.303C27.8583 442.303 31.7933 443.54 31.7933 453.422L31.7933 453.427Z" fill="black"/>
<path d="M1.06153 69.6004C0.722896 69.9384 0.499996 70.3876 0.499996 70.9481L0.499997 89.9306C0.499997 90.7178 1.06153 91.3895 1.73881 91.6162L37.7544 99.1416L1.62736 111.159C0.950085 111.386 0.499998 112.058 0.499998 112.845L0.499999 142.048C0.499999 142.946 1.06154 143.622 1.73881 143.845L65.1025 157.21C65.664 157.321 66.1141 157.21 66.5642 156.872C66.9029 156.534 67.1258 156.085 67.1258 155.524L67.1258 136.431C67.1258 135.644 66.5642 134.972 65.7755 134.745L29.1984 126.993L66.0027 114.299C66.6799 114.073 67.13 113.401 67.13 112.725L67.13 84.4202C67.13 83.6331 66.5685 82.8459 65.7798 82.6234L2.52324 69.2667C1.96171 69.1555 1.51162 69.2667 1.06153 69.6047L1.06153 69.6004Z" fill="black"/>
<path d="M0.955075 342.094L0.955076 362.989C0.955076 364.114 1.63235 365.012 2.75542 365.235L47.2111 375.233C50.9233 376.131 55.5399 380.401 53.5124 387.366C51.9349 392.307 44.9607 390.737 44.2834 390.511L44.172 390.511L3.76705 382.309C2.30534 381.971 0.955077 383.096 0.955077 384.444L0.955078 405.001C0.955078 406.011 1.63235 406.909 2.75543 407.136C16.1466 409.942 40.0098 416.12 45.1836 416.458C58.6905 417.356 64.7645 410.169 67.5808 404.774C70.2813 399.495 69.6083 375.455 68.7082 371.524C66.6806 363.772 62.0683 355.237 47.6612 349.73C40.6827 347.035 12.7731 341.529 3.76705 339.848C2.30534 339.621 0.955075 340.635 0.955075 342.094Z" fill="black"/>
<path d="M0.534031 2.68312C-0.0378893 46.7286 10.4613 60.5871 19.6649 66.8737C42.8508 82.7117 72.788 63.7891 67.1598 13.8022C67.0483 12.7926 67.2712 12.1166 66.2596 11.8942L51.8525 9.28017L49.7379 8.96967L31.0328 5.60519L31.0328 24.7856L47.3136 27.7023L47.3693 30.9879L47.3693 31.2147C47.3136 58.0173 21.7383 56.4602 21.0041 17.4002L21.0041 10.3241L21.0041 3.24788L2.55728 0.552576C0.418294 0.103361 0.529744 2.68741 0.529744 2.68741C0.460398 3.59164 0.534031 2.68312 0.534031 2.68312Z" fill="black"/>
</svg>
